<svg width="603" height="90" viewBox="0 0 603 90" fill="none" xmlns="http://www.w3.org/2000/svg">
<path d="M3.93875e-05 41.2213V75.0097C3.93875e-05 77.7579 0 83.28 0 83.28L3.93875e-05 90C3.93875e-05 90 12.242 90 14.9903 90H75.0098C77.758 90 90 90 90 90V80.9499C90 80.9499 90 77.7579 90 75.0097V14.9902C90 12.242 90 0 90 0H85.8058C85.8058 0 77.758 0 75.0098 0H41.2213V10.1184H75.0098C76.3423 10.1184 77.4665 10.6181 78.3826 11.6174C79.3819 12.5335 79.8816 13.6577 79.8816 14.9902V75.0097C79.8816 76.3422 79.3819 77.5081 78.3826 78.5074C77.4665 79.4235 76.3423 79.8815 75.0098 79.8815H14.9903C13.6578 79.8815 12.4919 79.4235 11.4925 78.5074C10.5765 77.5081 10.1184 76.3422 10.1184 75.0097V41.2213H3.93875e-05Z" fill="#FF9B50"/>
<path d="M95 90V18H136.512C138.455 18 140.221 18.5037 141.811 19.5111C143.46 20.4593 144.755 21.763 145.697 23.4222C146.698 25.0222 147.199 26.8 147.199 28.7556V58.8C147.199 60.7556 146.698 62.563 145.697 64.2222C144.755 65.8222 143.46 67.1259 141.811 68.1333C140.221 69.0815 138.455 69.5556 136.512 69.5556H102.242V90H95ZM105.775 62.2667H136.512C137.454 62.2667 138.249 61.9407 138.896 61.2889C139.603 60.5778 139.956 59.7482 139.956 58.8V28.7556C139.956 27.8074 139.603 27.0074 138.896 26.3556C138.249 25.6444 137.454 25.2889 136.512 25.2889H105.775C104.833 25.2889 104.009 25.6444 103.302 26.3556C102.596 27.0074 102.242 27.8074 102.242 28.7556V58.8C102.242 59.7482 102.596 60.5778 103.302 61.2889C104.009 61.9407 104.833 62.2667 105.775 62.2667Z" fill="#292929"/>
<path d="M164.074 69.5556C162.131 69.5556 160.335 69.0815 158.686 68.1333C157.096 67.1259 155.801 65.8222 154.8 64.2222C153.858 62.563 153.387 60.7556 153.387 58.8V28.7556C153.387 26.8 153.858 25.0222 154.8 23.4222C155.801 21.763 157.096 20.4593 158.686 19.5111C160.335 18.5037 162.131 18 164.074 18H194.81C196.812 18 198.608 18.5037 200.198 19.5111C201.846 20.4593 203.142 21.763 204.084 23.4222C205.085 25.0222 205.585 26.8 205.585 28.7556V47.4222H160.629V58.8C160.629 59.7482 160.953 60.5778 161.601 61.2889C162.307 61.9407 163.132 62.2667 164.074 62.2667H205.585V69.5556H164.074ZM160.629 40.1333H198.255V28.7556C198.255 27.8074 197.901 27.0074 197.195 26.3556C196.547 25.6444 195.752 25.2889 194.81 25.2889H164.074C163.132 25.2889 162.307 25.6444 161.601 26.3556C160.953 27.0074 160.629 27.8074 160.629 28.7556V40.1333Z" fill="#292929"/>
<path d="M214.805 69.5556V18H256.316C258.26 18 260.026 18.5037 261.616 19.5111C263.265 20.4593 264.56 21.763 265.502 23.4222C266.503 25.0222 267.004 26.8 267.004 28.7556V69.5556H259.761V28.7556C259.761 27.8074 259.408 27.0074 258.701 26.3556C258.053 25.6444 257.259 25.2889 256.316 25.2889H225.58C224.638 25.2889 223.814 25.6444 223.107 26.3556C222.401 27.0074 222.047 27.8074 222.047 28.7556V69.5556H214.805Z" fill="#292929"/>
<path d="M285 69.5556C283.057 69.5556 281.261 69.0815 279.612 68.1333C278.022 67.1259 276.727 65.8222 275.726 64.2222C274.784 62.563 274.313 60.7556 274.313 58.8V28.7556C274.313 26.8 274.784 25.0222 275.726 23.4222C276.727 21.763 278.022 20.4593 279.612 19.5111C281.261 18.5037 283.057 18 285 18H326.335V25.2889H285C284.058 25.2889 283.233 25.6444 282.527 26.3556C281.879 27.0074 281.555 27.8074 281.555 28.7556V58.8C281.555 59.7482 281.879 60.5778 282.527 61.2889C283.233 61.9407 284.058 62.2667 285 62.2667H326.512V69.5556H285Z" fill="#292929"/>
<path d="M346.412 69.5556C344.469 69.5556 342.673 69.0815 341.024 68.1333C339.434 67.1259 338.139 65.8222 337.138 64.2222C336.196 62.563 335.725 60.7556 335.725 58.8V28.7556C335.725 26.8 336.196 25.0222 337.138 23.4222C338.139 21.763 339.434 20.4593 341.024 19.5111C342.673 18.5037 344.469 18 346.412 18H377.148C379.15 18 380.946 18.5037 382.536 19.5111C384.184 20.4593 385.48 21.763 386.422 23.4222C387.423 25.0222 387.923 26.8 387.923 28.7556V58.8C387.923 60.7556 387.423 62.563 386.422 64.2222C385.48 65.8222 384.184 67.1259 382.536 68.1333C380.946 69.0815 379.15 69.5556 377.148 69.5556H346.412ZM346.412 62.2667H361.78H377.148C378.09 62.2667 378.885 61.9407 379.533 61.2889C380.239 60.5778 380.593 59.7482 380.593 58.8V28.7556C380.593 27.8074 380.239 27.0074 379.533 26.3556C378.885 25.6444 378.09 25.2889 377.148 25.2889H346.412C345.47 25.2889 344.645 25.6444 343.939 26.3556C343.291 27.0074 342.967 27.8074 342.967 28.7556V58.8C342.967 59.7482 343.291 60.5778 343.939 61.2889C344.645 61.9407 345.47 62.2667 346.412 62.2667Z" fill="#FF9B50"/>
<path d="M396.104 69.5556V28.7556C396.104 26.8 396.575 25.0222 397.517 23.4222C398.518 21.763 399.813 20.4593 401.403 19.5111C403.052 18.5037 404.848 18 406.791 18H435.584V25.2889H406.791C405.849 25.2889 405.024 25.6444 404.318 26.3556C403.67 27.0074 403.346 27.8074 403.346 28.7556V69.5556H396.104Z" fill="#292929"/>
<path d="M441.477 69.5556V18H482.988C484.931 18 486.698 18.5037 488.288 19.5111C489.936 20.4593 491.232 21.763 492.174 23.4222C493.175 25.0222 493.675 26.8 493.675 28.7556V69.5556H486.433V28.7556C486.433 27.8074 486.08 27.0074 485.373 26.3556C484.725 25.6444 483.93 25.2889 482.988 25.2889H452.252C451.31 25.2889 450.485 25.6444 449.779 26.3556C449.072 27.0074 448.719 27.8074 448.719 28.7556V69.5556H441.477Z" fill="#292929"/>
<path d="M513.397 69.5556C511.454 69.5556 509.658 69.0815 508.009 68.1333C506.419 67.1259 505.124 65.8222 504.123 64.2222C503.181 62.563 502.71 60.7556 502.71 58.8V28.7556C502.71 26.8 503.181 25.0222 504.123 23.4222C505.124 21.763 506.419 20.4593 508.009 19.5111C509.658 18.5037 511.454 18 513.397 18H544.133C546.135 18 547.931 18.5037 549.521 19.5111C551.169 20.4593 552.465 21.763 553.407 23.4222C554.408 25.0222 554.908 26.8 554.908 28.7556V47.4222H509.952V58.8C509.952 59.7482 510.276 60.5778 510.924 61.2889C511.63 61.9407 512.455 62.2667 513.397 62.2667H554.908V69.5556H513.397ZM509.952 40.1333H547.578V28.7556C547.578 27.8074 547.224 27.0074 546.518 26.3556C545.87 25.6444 545.075 25.2889 544.133 25.2889H513.397C512.455 25.2889 511.63 25.6444 510.924 26.3556C510.276 27.0074 509.952 27.8074 509.952 28.7556V40.1333Z" fill="#292929"/>
<path d="M563.52 69.5556V28.7556C563.52 26.8 563.991 25.0222 564.933 23.4222C565.934 21.763 567.229 20.4593 568.819 19.5111C570.468 18.5037 572.264 18 574.207 18H603V25.2889H574.207C573.265 25.2889 572.44 25.6444 571.734 26.3556C571.086 27.0074 570.762 27.8074 570.762 28.7556V69.5556H563.52Z" fill="#292929"/>
</svg>
